<svg width="161" height="60" viewBox="0 0 161 60" fill="none" xmlns="http://www.w3.org/2000/svg">
<g clip-path="url(#clip0_1_94)">
<path d="M17.8588 28.8894C17.8588 28.8894 25.3735 19.5157 36.4194 19.3513C47.4654 19.1869 54.159 24.0793 56.3352 25.7648C51.7365 21.325 46.2745 17.131 36.6658 17.3369C28.0423 17.7073 20.4049 23.9564 17.8588 28.8894Z" fill="#1D1D1B"/>
<path d="M137.174 8.34658C137.174 8.34658 148.489 8.28687 153.545 8.03161C158.6 7.77549 159.13 7.77549 158.272 8.52483C155.187 10.9918 152.669 12.3433 149.128 13.8784C153.198 12.9646 160.252 10.3065 160.99 7.01749C161.155 6.03106 158.937 6.16778 156.583 6.33218C154.229 6.49659 137.174 8.34658 137.174 8.34658H137.174Z" fill="#1D1D1B"/>
<path d="M149.129 13.8784C149.129 13.8784 153.052 13.6499 154.421 13.6499C155.79 13.6499 156.502 14.1708 156.337 16.3358C156.173 18.5007 155.981 24.2021 155.981 24.2843C155.981 24.3665 157.953 17.3499 158.336 15.294C158.718 13.2381 158.308 12.3615 155.763 12.6626C153.217 12.9638 149.129 13.8775 149.129 13.8775V13.8784Z" fill="#1D1D1B"/>
<path d="M5.13364 28.4784C5.13364 28.4784 16.1338 19.4751 31.533 16.3912C42.9895 14.0064 52.8039 15.1166 63.7677 16.3912C74.7316 17.6657 100.355 20.0911 100.355 20.0911L76.8671 16.5962C76.8671 16.5962 90.0072 17.4598 100.355 16.6784C110.702 15.8971 118.067 13.8048 127.703 13.8784C137.339 13.9511 145.565 16.1852 152.053 23.092C148.111 18.364 141.377 11.0869 127.21 10.8819C113.044 10.6759 106.761 14.6641 94.1547 15.0344C81.5488 15.4047 67.2584 14.5412 60.6063 13.3073C64.2197 10.9641 76.8265 2.04208 89.7608 1.87768C102.696 1.71327 110.457 5.16664 119.654 7.09883C128.852 9.03102 137.868 11.2098 149.087 11.292C135.423 8.82508 125.28 5.82426 115.507 3.31579C105.734 0.809911 96.7414 -0.300255 89.0211 0.0692231C81.3016 0.439567 70.6247 2.53616 55.3906 13.1022C47.958 12.3624 40.3207 11.7048 29.521 14.4996C18.7214 17.2954 9.40907 24.3259 5.1345 28.4775L5.13364 28.4784Z" fill="#1D1D1B"/>
<path d="M3.85629 40.319C3.85629 40.319 1.69394 37.6331 1.9126 35.1385C2.13125 32.6439 3.9384 31.9318 6.37471 30.9453C8.81103 29.9589 14.9982 27.1631 14.9982 27.1631C14.9982 27.1631 7.16896 29.0547 3.96605 30.2332C0.763147 31.4117 -1.1261 33.1388 0.735491 36.3724C2.18656 38.784 3.85629 40.319 3.85629 40.319Z" fill="#1D1D1B"/>
<path d="M5.96419 44.43C5.96419 44.43 3.0897 48.2122 2.73363 48.7054C2.37756 49.1986 1.83049 48.3221 1.88494 47.5814C1.93939 46.8139 3.99284 45.0054 5.96419 44.4291V44.43Z" fill="#1D1D1B"/>
<path d="M60.0713 54.9943L59.023 58.2296H58.1622L56.6212 53.7336H57.552L58.6004 57.071L59.6332 53.7336H60.5562L61.5734 57.0788L62.6373 53.7336H63.5058L61.9882 58.2296H61.1352L60.0713 54.9943Z" fill="#1D1D1B"/>
<path d="M66.9395 54.9943L65.8912 58.2296H65.0304L63.4894 53.7336H64.4202L65.4686 57.071L66.5013 53.7336H67.4244L68.4416 57.0788L69.5055 53.7336H70.374L68.8564 58.2296H68.0034L66.9395 54.9943Z" fill="#1D1D1B"/>
<path d="M73.8068 54.9943L72.7585 58.2296H71.8977L70.3568 53.7336H71.2875L72.3359 57.071L73.3687 53.7336H74.2917L75.3089 57.0788L76.3728 53.7336H77.2414L75.7237 58.2296H74.8707L73.8068 54.9943Z" fill="#1D1D1B"/>
<path d="M78.4686 57.1956V58.2296H77.4358V57.1956H78.4686Z" fill="#1D1D1B"/>
<path d="M83.1934 57.5322C82.763 58.0652 82.0984 58.4018 81.3163 58.4018C79.994 58.4018 78.9932 57.3133 78.9932 55.9894C78.9932 54.6655 79.9949 53.5614 81.3163 53.5614C82.0673 53.5614 82.7242 53.8902 83.1545 54.4076V52.1207H84.0153V58.2305H83.1943V57.5331L83.1934 57.5322ZM81.5272 54.3203C80.5808 54.3203 79.8998 55.0878 79.8998 55.973C79.8998 56.8581 80.58 57.6412 81.5272 57.6412C82.4744 57.6412 83.1779 56.8581 83.1779 55.9807C83.1779 55.1033 82.4735 54.3203 81.5272 54.3203Z" fill="#1D1D1B"/>
<path d="M87.3548 57.8221C87.0575 58.1353 86.6115 58.3862 86.0403 58.3862C85.195 58.3862 84.5382 57.752 84.5382 56.8979C84.5382 56.0439 85.1795 55.4096 86.15 55.4096C86.6271 55.4096 87.0108 55.5585 87.2839 55.7696V55.4642C87.2839 54.5945 86.9166 54.3358 86.29 54.3436C85.985 54.3436 85.7421 54.3748 85.1873 54.4769L85.1484 53.7483C85.6885 53.6384 85.9538 53.6073 86.3765 53.6073C87.589 53.6073 88.1447 54.2104 88.1447 55.1899V58.2296H87.3548V57.8221ZM87.2926 56.8737C87.2926 56.3883 86.9175 55.9807 86.3462 55.9807C85.775 55.9807 85.4388 56.3883 85.4388 56.8737C85.4388 57.3912 85.7983 57.8134 86.3462 57.8134C86.8942 57.8134 87.2926 57.3981 87.2926 56.8737Z" fill="#1D1D1B"/>
<path d="M89.7323 58.2296H88.8638V53.7336H89.6926V54.3367C89.9112 53.9759 90.3494 53.6159 90.9751 53.6159C91.6008 53.6159 92.0701 53.9214 92.2974 54.4622C92.4772 54.078 92.9465 53.6159 93.6742 53.6159C94.5661 53.6159 95.1529 54.2502 95.1529 55.2842V58.2296H94.2921V55.5429C94.2921 54.6577 93.917 54.3756 93.3769 54.3756C92.9154 54.3756 92.4461 54.752 92.4461 55.472V58.2296H91.5853V55.5429C91.5853 54.6577 91.1704 54.3756 90.6545 54.3756C90.2008 54.3756 89.7315 54.7434 89.7315 55.4642V58.2296H89.7323Z" fill="#1D1D1B"/>
<path d="M98.4777 57.8221C98.1804 58.1353 97.7344 58.3862 97.1631 58.3862C96.3179 58.3862 95.6611 57.752 95.6611 56.8979C95.6611 56.0439 96.3023 55.4096 97.2729 55.4096C97.75 55.4096 98.1337 55.5585 98.4068 55.7696V55.4642C98.4068 54.5945 98.0395 54.3358 97.4129 54.3436C97.1078 54.3436 96.865 54.3748 96.3101 54.4769L96.2712 53.7483C96.8114 53.6384 97.0767 53.6073 97.4993 53.6073C98.7119 53.6073 99.2676 54.2104 99.2676 55.1899V58.2296H98.4777V57.8221ZM98.4154 56.8737C98.4154 56.3883 98.0404 55.9807 97.4691 55.9807C96.8978 55.9807 96.5616 56.3883 96.5616 56.8737C96.5616 57.3912 96.9211 57.8134 97.4691 57.8134C98.017 57.8134 98.4154 57.3981 98.4154 56.8737Z" fill="#1D1D1B"/>
<path d="M103.062 57.6966C102.764 58.041 102.241 58.3464 101.591 58.3464C100.621 58.3464 99.9711 57.7122 99.9711 56.6782V53.7327H100.832V56.4194C100.832 57.2968 101.348 57.5867 101.919 57.5867C102.404 57.5867 103.03 57.219 103.03 56.4982V53.7327H103.89V58.2288H103.062V57.6957V57.6966Z" fill="#1D1D1B"/>
<path d="M105.8 54.4691V58.2296H104.939V54.4691H104.352V53.7327H104.939V52.6442L105.8 52.4088V53.7327H106.394V54.4691H105.8Z" fill="#1D1D1B"/>
<path d="M111.697 55.9807C111.697 57.328 110.61 58.4563 109.131 58.4563C107.653 58.4563 106.573 57.328 106.573 55.9807C106.573 54.6335 107.66 53.5051 109.131 53.5051C110.602 53.5051 111.697 54.6335 111.697 55.9807ZM107.481 55.9807C107.481 56.9204 108.177 57.7122 109.131 57.7122C110.085 57.7122 110.79 56.9135 110.79 55.9807C110.79 55.048 110.093 54.2493 109.131 54.2493C108.169 54.2493 107.481 55.0402 107.481 55.9807Z" fill="#1D1D1B"/>
<path d="M113.613 56.0984L113.105 56.5838V58.2288H112.244V52.119H113.105V55.4953L114.99 53.7327H116.116L114.223 55.5265L116.241 58.2288H115.185L113.613 56.0984Z" fill="#1D1D1B"/>
<path d="M121.217 55.9807C121.217 57.328 120.13 58.4563 118.651 58.4563C117.172 58.4563 116.093 57.328 116.093 55.9807C116.093 54.6335 117.18 53.5051 118.651 53.5051C120.122 53.5051 121.217 54.6335 121.217 55.9807ZM117 55.9807C117 56.9204 117.697 57.7122 118.651 57.7122C119.605 57.7122 120.309 56.9135 120.309 55.9807C120.309 55.048 119.613 54.2493 118.651 54.2493C117.689 54.2493 117 55.0402 117 55.9807Z" fill="#1D1D1B"/>
<path d="M122.624 58.2296H121.763V53.7336H122.592V54.6499C122.772 54.2978 123.233 53.7336 123.859 53.7336H124.008V54.7131C123.969 54.6975 123.874 54.6819 123.82 54.6819C123.085 54.6819 122.623 55.3162 122.623 55.7627V58.2305L122.624 58.2296Z" fill="#1D1D1B"/>
<path d="M123.703 59.2005C124.267 59.2005 124.532 58.9418 124.532 58.2686V53.7327H125.393V58.2686C125.393 59.5769 124.908 59.9922 123.727 60H123.609V59.2013H123.703V59.2005ZM125.409 53.0517H124.517V52.1198H125.409V53.0517Z" fill="#1D1D1B"/>
<path d="M128.749 57.8221C128.452 58.1353 128.006 58.3862 127.434 58.3862C126.589 58.3862 125.932 57.752 125.932 56.8979C125.932 56.0439 126.574 55.4096 127.544 55.4096C128.021 55.4096 128.405 55.5585 128.678 55.7696V55.4642C128.678 54.5945 128.311 54.3358 127.684 54.3436C127.379 54.3436 127.136 54.3748 126.581 54.4769L126.542 53.7483C127.083 53.6384 127.348 53.6073 127.771 53.6073C128.983 53.6073 129.539 54.2104 129.539 55.1899V58.2296H128.749V57.8221ZM128.687 56.8737C128.687 56.3883 128.312 55.9807 127.74 55.9807C127.169 55.9807 126.833 56.3883 126.833 56.8737C126.833 57.3912 127.192 57.8134 127.74 57.8134C128.288 57.8134 128.687 57.3981 128.687 56.8737Z" fill="#1D1D1B"/>
<path d="M132.879 57.8221C132.582 58.1353 132.136 58.3862 131.565 58.3862C130.719 58.3862 130.062 57.752 130.062 56.8979C130.062 56.0439 130.704 55.4096 131.674 55.4096C132.151 55.4096 132.535 55.5585 132.808 55.7696V55.4642C132.808 54.5945 132.441 54.3358 131.814 54.3436C131.509 54.3436 131.266 54.3748 130.712 54.4769L130.673 53.7483C131.213 53.6384 131.478 53.6073 131.901 53.6073C133.113 53.6073 133.669 54.2104 133.669 55.1899V58.2296H132.879V57.8221ZM132.817 56.8737C132.817 56.3883 132.442 55.9807 131.871 55.9807C131.299 55.9807 130.963 56.3883 130.963 56.8737C130.963 57.3912 131.323 57.8134 131.871 57.8134C132.418 57.8134 132.817 57.3981 132.817 56.8737Z" fill="#1D1D1B"/>
<path d="M135.257 58.2296H134.388V53.7336H135.217V54.3367C135.436 53.9759 135.874 53.6159 136.499 53.6159C137.125 53.6159 137.594 53.9214 137.822 54.4622C138.001 54.078 138.471 53.6159 139.198 53.6159C140.09 53.6159 140.677 54.2502 140.677 55.2842V58.2296H139.816V55.5429C139.816 54.6577 139.441 54.3756 138.901 54.3756C138.44 54.3756 137.97 54.752 137.97 55.472V58.2296H137.11V55.5429C137.11 54.6577 136.695 54.3756 136.179 54.3756C135.725 54.3756 135.256 54.7434 135.256 55.4642V58.2296H135.257Z" fill="#1D1D1B"/>
<path d="M146.334 55.9807C146.334 57.328 145.246 58.4563 143.768 58.4563C142.289 58.4563 141.21 57.328 141.21 55.9807C141.21 54.6335 142.297 53.5051 143.768 53.5051C145.239 53.5051 146.334 54.6335 146.334 55.9807ZM142.117 55.9807C142.117 56.9204 142.814 57.7122 143.768 57.7122C144.722 57.7122 145.426 56.9135 145.426 55.9807C145.426 55.048 144.73 54.2493 143.768 54.2493C142.806 54.2493 142.117 55.0402 142.117 55.9807Z" fill="#1D1D1B"/>
<path d="M147.874 57.1956V58.2296H146.841V57.1956H147.874Z" fill="#1D1D1B"/>
<path d="M149.861 54.4691V58.2296H149V54.4691H148.413V53.7327H149V53.4818C149 52.2124 149.821 52.0246 150.533 52.0246V52.7844C150.22 52.7844 149.861 52.8709 149.861 53.5441V53.7318H150.409V54.4682H149.861V54.4691ZM151.778 53.0517H150.886V52.1198H151.778V53.0517ZM151.761 58.2296H150.9V53.7336H151.761V58.2296Z" fill="#1D1D1B"/>
<path d="M146.477 22.9189L144.094 26.2053V48.8473H138.809V32.8957L135.892 38.4015L133.152 43.5699L132.624 44.5667L131.436 46.8104H128.528L127.338 44.5667L126.81 43.5699L124.072 38.4015L121.154 32.8957V46.5101L120.111 44.3383L117.568 39.0462L115.868 35.5097V22.9189H121.155L129.358 38.4015L129.981 39.5774L130.604 38.4015L138.808 22.9189H146.477Z" fill="#1D1D1B"/>
<path d="M121.232 48.862H115.947L113.773 44.3383H102.377L104.812 39.272L104.928 39.047H111.23L106.339 28.8721L105.814 29.9641L96.7328 48.862H91.447C95.5583 40.306 99.7991 31.5 103.91 22.9431L107.724 22.9241L108.772 22.9189C111.311 28.2032 113.977 33.7618 116.517 39.0462L119.059 44.3374L121.233 48.8611L121.232 48.862Z" fill="#1D1D1B"/>
<path d="M95.1728 35.8827C95.1728 39.1768 93.9464 42.1837 91.9249 44.4698C89.5534 47.1539 86.0852 48.8473 82.2238 48.8473H66.9732V30.9825H72.259V43.5552H82.2238C86.4551 43.5552 89.8862 40.1209 89.8862 35.8827C89.8862 31.6445 86.456 28.211 82.2238 28.211H65.7278L61.9217 22.9189H82.2238C83.8676 22.9189 85.4414 23.2261 86.8872 23.7859C91.7348 25.6601 95.1728 30.369 95.1728 35.8827Z" fill="#1D1D1B"/>
<path d="M53.6586 40.672C53.7286 46.9783 49.7548 53.0517 43.9617 55.5334C33.2788 60.2388 21.232 52.3725 21.2337 40.672C21.2268 28.969 33.2788 21.0983 43.9626 25.809C49.7548 28.2915 53.7286 34.3658 53.6586 40.672ZM53.6586 40.672C53.7061 32.0321 46.4309 24.9125 37.8135 25.1782C29.4838 25.34 22.658 32.3367 22.7029 40.672C22.639 48.9857 29.4985 56.0249 37.8135 56.1702C46.4318 56.4342 53.707 49.3128 53.6586 40.672Z" fill="#1D1D1B"/>
<path d="M37.8135 28.2725C32.9175 28.2214 28.2194 31.3901 26.4408 35.9562C23.1895 43.9974 29.1563 52.8415 37.8135 52.8268C46.4698 52.8389 52.4357 43.9965 49.1852 35.9562C47.4075 31.391 42.7103 28.2205 37.8135 28.2725ZM37.8135 28.2725C42.7284 28.2136 47.4455 31.352 49.3279 35.8965C52.8194 44.1297 46.7576 53.32 37.8126 53.3165C28.8694 53.3182 22.8075 44.1297 26.2991 35.8965C28.1823 31.352 32.8976 28.2127 37.8135 28.2716V28.2725Z" fill="#010101"/>
<path d="M26.9127 38.5928C27.1772 37.2092 27.6758 35.861 28.3975 34.6462C28.4675 34.5319 28.5254 34.4255 28.6058 34.313C28.9402 33.8302 29.6688 33.7186 30.1441 34.0725C30.3706 34.2507 30.5399 34.4238 30.7301 34.6003C31.2728 35.1117 31.8683 35.6724 32.3989 36.1907C33.1344 36.9072 33.8595 37.6331 34.5743 38.3704C34.6503 38.4482 34.659 38.5668 34.6019 38.6551C34.3712 39.0098 34.1966 39.4027 34.0903 39.8145C34.0704 39.9106 33.9848 39.9781 33.8906 39.9738C33.2459 39.9539 32.6003 39.9348 31.9556 39.9089C30.8148 39.863 29.2099 39.8068 28.0846 39.786C28.0094 39.7808 27.7951 39.7799 27.7208 39.7618C27.1893 39.6752 26.8012 39.1206 26.9136 38.5919L26.9127 38.5928ZM26.9127 38.5928C26.7934 39.1638 27.261 39.7453 27.8426 39.7505H28.0837C29.2038 39.7384 30.8191 39.6657 31.9547 39.6276C32.5994 39.6017 33.245 39.5826 33.8898 39.5627L33.6901 39.722C33.7835 39.259 33.9598 38.8108 34.2069 38.405L34.2398 38.6949C33.5052 37.981 32.7818 37.2559 32.0679 36.5213C31.5528 35.99 30.9868 35.3946 30.4794 34.8504C30.3317 34.6972 30.1173 34.4515 29.9609 34.3113C29.6178 34.0136 29.0448 34.0664 28.7561 34.4272C28.6023 34.6219 28.458 34.8383 28.324 35.0494C27.6335 36.1249 27.153 37.332 26.9136 38.591L26.9127 38.5928Z" fill="#010101"/>
<path d="M30.1165 47.0934C29.795 47.3988 29.2669 47.436 28.8996 47.1885C28.776 47.1089 28.674 46.9973 28.5928 46.8762C28.2609 46.3968 27.9584 45.8949 27.6948 45.3714C27.299 44.5832 26.9896 43.7499 26.7865 42.8898C26.745 42.734 26.72 42.5662 26.7381 42.4044C26.79 41.8809 27.2256 41.4361 27.7536 41.3738C28.0129 41.347 28.3854 41.3504 28.6481 41.3426C30.3991 41.3106 32.1492 41.3193 33.9002 41.3747C33.9892 41.3773 34.0618 41.4422 34.0773 41.5261C34.1594 41.9535 34.3185 42.3689 34.5388 42.7505C34.5725 42.8093 34.5596 42.882 34.512 42.9261L33.4006 43.9558C32.2909 44.9769 31.1916 46.0377 30.1156 47.0942L30.1165 47.0934ZM30.1165 47.0934C31.5373 45.7011 32.9426 44.173 34.302 42.7133L34.2813 42.8993C34.0151 42.5117 33.8181 42.0729 33.6988 41.6126L33.8889 41.764C31.8744 41.8315 29.8563 41.8203 27.8409 41.7831C27.2964 41.8004 26.9542 42.3074 27.0821 42.8309C27.3103 44.2595 27.8262 45.6457 28.617 46.8606C28.9091 47.3893 29.6766 47.5122 30.1165 47.0934Z" fill="#010101"/>
<path d="M36.9181 50.4342C36.9751 51.0676 36.543 51.6309 35.8827 51.6179C35.5846 51.592 35.2976 51.5184 35.0072 51.4553C34.1361 51.2528 33.2909 50.9517 32.4862 50.5554C32.2183 50.4221 31.9547 50.2776 31.6972 50.1245C31.577 50.044 31.4068 49.9601 31.3039 49.851C30.8943 49.4668 30.8329 48.7945 31.1631 48.3333C31.3083 48.1438 31.584 47.8747 31.7499 47.6973C32.984 46.4141 34.2484 45.1612 35.5457 43.942C35.6079 43.8831 35.7021 43.8779 35.7704 43.9238C36.1316 44.1678 36.5352 44.3538 36.9613 44.4681C37.0227 44.4845 37.0624 44.5416 37.0607 44.6031L37.0063 46.0611C36.9535 47.4749 36.919 49.0281 36.9198 50.4351L36.9181 50.4342ZM36.9181 50.4342C36.9224 49.0299 36.8809 47.4715 36.8317 46.0602L36.7772 44.6022L36.887 44.7398C36.4255 44.6532 35.9769 44.4836 35.569 44.2414L35.8024 44.2154C34.5907 45.5159 33.347 46.7844 32.0723 48.0227C31.9366 48.1585 31.6609 48.4129 31.533 48.5522C31.2702 48.8378 31.2728 49.3275 31.5468 49.6131C31.6125 49.6987 31.7784 49.7982 31.8657 49.8666C32.1051 50.0345 32.3505 50.1928 32.602 50.3434C33.3591 50.7907 34.1758 51.1498 35.0245 51.3921C35.3071 51.4709 35.5967 51.5522 35.8853 51.5885C36.5447 51.6171 36.9691 51.0711 36.9198 50.4342H36.9181Z" fill="#010101"/>
<path d="M36.9181 36.7428C36.4834 36.87 36.0737 37.0647 35.709 37.3182C35.6814 37.3372 35.6459 37.332 35.6243 37.3087C34.2415 36.0384 32.8795 34.737 31.5347 33.4261C31.3748 33.2643 31.2089 33.1276 31.0792 32.9182C30.8079 32.4717 30.8658 31.8625 31.2227 31.4783C31.38 31.3096 31.584 31.1954 31.775 31.0691C32.3142 30.7247 32.8821 30.4236 33.4749 30.183C34.2199 29.8828 34.9951 29.6431 35.7894 29.5211C36.5093 29.4302 37.1661 30.0662 37.1195 30.7827C37.0918 32.7702 37.0071 34.8339 36.919 36.7419L36.9181 36.7428ZM36.9181 36.7428C36.8317 34.7924 36.7591 32.9675 36.7211 31.0985C36.7141 30.9142 36.7211 30.6996 36.6787 30.5317C36.5871 30.1951 36.2518 29.9433 35.9017 29.9684C35.7349 29.9823 35.5699 30.0307 35.4074 30.0671C34.8111 30.2064 34.226 30.395 33.6616 30.6321C33.1992 30.8311 32.7265 31.0613 32.2935 31.3174C32.0541 31.4671 31.7784 31.6099 31.5727 31.8002C31.3541 32.0295 31.31 32.4103 31.4716 32.6906C31.5598 32.8394 31.7162 32.9822 31.8441 33.1181C33.1534 34.4645 34.4524 35.8273 35.722 37.2126L35.6373 37.2031C36.0366 36.9747 36.473 36.8163 36.9198 36.7436L36.9181 36.7428Z" fill="#010101"/>
<path d="M45.5001 34.2464C45.9383 33.8241 46.7135 33.9358 47.0255 34.4558C47.8863 35.688 48.5284 37.0811 48.8638 38.5504C49.028 39.1976 48.5414 39.8855 47.8768 39.9634C47.7117 39.9841 47.5734 39.9815 47.417 39.9876C46.6928 40.0032 45.9556 40.0136 45.2322 40.0144C44.0629 40.0179 42.8935 40.0014 41.7242 39.9642C41.636 39.9616 41.5634 39.8967 41.547 39.8137C41.4649 39.3914 41.3085 38.9821 41.0916 38.6049C41.0579 38.546 41.0708 38.4742 41.1184 38.4301L42.2263 37.3969C43.3317 36.3733 44.4258 35.3064 45.4992 34.2481L45.5001 34.2464ZM45.5001 34.2464C44.0836 35.6421 42.6861 37.1763 41.331 38.6403L41.3517 38.4552C41.6136 38.8394 41.808 39.2711 41.9264 39.7263L41.7372 39.5749C42.9022 39.5376 44.0672 39.5221 45.2322 39.5247C45.8147 39.5264 46.3972 39.5307 46.9797 39.5428C47.2182 39.5411 47.5985 39.5662 47.8292 39.5515C48.2147 39.5316 48.5535 39.1855 48.5682 38.7944C48.576 38.7026 48.5578 38.5953 48.5422 38.5028C48.3124 37.0742 47.7938 35.688 47.0013 34.4731C46.7066 33.9444 45.9391 33.8293 45.4992 34.2473L45.5001 34.2464Z" fill="#010101"/>
<path d="M38.7158 30.9211C38.6604 30.2834 39.0779 29.7227 39.7442 29.7279C40.0424 29.7512 40.3293 29.8265 40.6214 29.8897C41.4934 30.0922 42.3387 30.3933 43.1442 30.7904C43.4121 30.9246 43.6757 31.0682 43.9341 31.2222C44.0533 31.3036 44.2245 31.3858 44.3282 31.4948C44.7205 31.8617 44.8001 32.4968 44.5097 32.9563C44.4241 33.0964 44.304 33.2141 44.1977 33.3318C42.8624 34.7197 41.4909 36.0748 40.0821 37.3891C40.0208 37.4532 39.9214 37.4635 39.8505 37.4151C39.4936 37.1745 39.0952 36.9911 38.6743 36.8786C38.6129 36.8622 38.5731 36.8051 38.5757 36.7445L38.6302 35.2891C38.6829 33.8769 38.7175 32.3263 38.7166 30.922L38.7158 30.9211ZM38.7158 30.9211C38.7123 32.3237 38.7529 33.8787 38.8022 35.2882L38.8566 36.7436L38.7477 36.606C39.2032 36.6926 39.6465 36.8596 40.0493 37.0975L39.8177 37.1235C41.0345 35.8264 42.2834 34.5622 43.5633 33.3283C43.7172 33.1683 44.0387 32.8948 44.1553 32.7278C44.4068 32.3808 44.3066 31.8478 43.9427 31.609L43.7647 31.4809C42.8045 30.8052 41.7354 30.2773 40.6033 29.9537C40.3198 29.8758 40.0311 29.7919 39.7416 29.7582C39.2991 29.7261 38.8609 30.0463 38.7529 30.4798C38.7114 30.6234 38.7192 30.774 38.714 30.9211H38.7158Z" fill="#010101"/>
<path d="M44.0585 49.8545C42.8944 50.6471 41.5902 51.2502 40.2221 51.6006C40.0916 51.6318 39.9749 51.6664 39.8393 51.6889C39.2619 51.7936 38.6665 51.3584 38.5801 50.7708C38.5455 50.4844 38.5481 50.2421 38.5377 49.9826C38.5144 49.2367 38.4902 48.4181 38.4807 47.6757C38.4668 46.6477 38.4668 45.6206 38.4815 44.5927C38.4833 44.4836 38.561 44.3936 38.663 44.372C39.0761 44.2846 39.4763 44.128 39.8427 43.9108C39.924 43.8572 40.0329 43.8701 40.0968 43.9394C40.5384 44.4101 40.9809 44.8799 41.4191 45.355C42.1926 46.1952 43.2885 47.3702 44.0689 48.181C44.1761 48.3004 44.2996 48.4121 44.3731 48.56C44.6116 48.9935 44.4699 49.5828 44.0568 49.8536L44.0585 49.8545ZM44.0585 49.8545C44.4682 49.5811 44.6056 48.9953 44.3576 48.5704C44.2824 48.4285 44.1562 48.3229 44.0447 48.2078C43.2444 47.4248 42.0509 46.3319 41.2221 45.5549C40.7476 45.1162 40.2783 44.6731 39.8081 44.231L40.0622 44.2595C39.6699 44.5208 39.23 44.7155 38.7685 44.828L38.9499 44.6005C38.9655 45.6258 38.9646 46.6503 38.9508 47.6757C38.9456 48.6664 38.886 49.7455 38.8808 50.7302C38.9137 51.1844 39.3579 51.5505 39.8168 51.5003C40.0631 51.4708 40.3181 51.4198 40.5618 51.3653C41.8097 51.0919 43.0015 50.5753 44.0585 49.8536V49.8545Z" fill="#010101"/>
<path d="M46.984 46.9264C46.7126 47.34 46.1241 47.481 45.692 47.2422C45.5442 47.1686 45.4327 47.0449 45.3134 46.9376C44.5088 46.1606 43.3239 45.0565 42.4916 44.2838C42.018 43.8451 41.5479 43.4029 41.0777 42.9599C41.006 42.8932 40.9974 42.7859 41.0492 42.7072C41.267 42.3369 41.4243 41.9336 41.5116 41.5174C41.5341 41.411 41.6265 41.3383 41.7302 41.3366C42.757 41.321 43.7846 41.3201 44.8113 41.334C45.552 41.3418 46.3721 41.366 47.1162 41.3902C47.3755 41.4006 47.6175 41.3972 47.9062 41.4335C48.4904 41.527 48.9277 42.1223 48.8179 42.702C48.7644 42.9651 48.6987 43.2082 48.627 43.4583C48.2683 44.693 47.7031 45.8672 46.9831 46.9272L46.984 46.9264ZM46.984 46.9264C47.7057 45.8672 48.2208 44.6731 48.4947 43.4228C48.5509 43.1762 48.5984 42.9183 48.6295 42.6761C48.6823 42.2157 48.3167 41.7744 47.8638 41.7355C46.8812 41.7389 45.8017 41.8004 44.813 41.8038C43.7889 41.8168 42.7639 41.8168 41.7398 41.8012L41.9662 41.6204C41.8538 42.0859 41.6585 42.529 41.3949 42.9244L41.3664 42.6717C41.808 43.1424 42.2505 43.6123 42.6887 44.0873C43.47 44.9206 44.5529 46.1069 45.3393 46.9125C45.4552 47.0233 45.5597 47.1496 45.7023 47.2249C46.1267 47.4724 46.7126 47.3374 46.9849 46.9264H46.984Z" fill="#010101"/>
<path d="M35.4057 39.15C35.0695 39.503 35.5595 39.9746 35.8879 39.6328C36.2267 39.3032 35.7591 38.8151 35.4057 39.15ZM35.4057 39.15C35.7203 38.8082 36.3546 38.9821 36.4117 39.4779C36.4652 39.8526 36.1074 40.21 35.7332 40.1555C35.2397 40.0975 35.0643 39.4641 35.4057 39.1491V39.15Z" fill="#010101"/>
<path d="M37.6899 38.7295C38.1687 38.8385 38.3294 38.1757 37.8627 38.058C37.7236 38.0199 37.5741 38.0589 37.4747 38.1826C37.3442 38.36 37.4557 38.6793 37.6899 38.7295ZM37.6899 38.7295C37.2413 38.6135 37.0598 37.9862 37.4695 37.6859C37.7642 37.4445 38.2577 37.5804 38.3968 37.9343C38.5991 38.3911 38.1341 38.8636 37.6899 38.7295Z" fill="#010101"/>
<path d="M35.607 41.4214C35.1464 41.5737 35.3426 42.22 35.7972 42.092C36.244 41.97 36.0746 41.3089 35.607 41.4214ZM35.607 41.4214C36.0487 41.289 36.5084 41.7485 36.3278 42.2088C36.199 42.5705 35.6961 42.7037 35.4022 42.4658C35.0038 42.1716 35.1619 41.5382 35.607 41.4214Z" fill="#010101"/>
<path d="M37.9258 42.6319C37.7054 42.5592 37.4436 42.7669 37.4704 42.9841L37.4729 42.9746C37.4833 43.0499 37.5162 43.1139 37.5533 43.1606C37.5922 43.2073 37.632 43.2368 37.6726 43.2558C38.1609 43.4816 38.4513 42.8171 37.9275 42.6319H37.9258ZM37.9258 42.6319C38.3821 42.741 38.5636 43.3562 38.1479 43.6633C37.8083 43.9307 37.2491 43.7135 37.1903 43.2835C37.1082 42.8439 37.5334 42.5246 37.9258 42.6319Z" fill="#010101"/>
<path d="M39.7736 39.0323C39.2948 39.1621 39.4884 39.8119 39.9464 39.6865C40.4114 39.5645 40.2567 38.919 39.7736 39.0323ZM39.7736 39.0323C40.2256 38.8913 40.6845 39.3507 40.4779 39.8171C40.3371 40.1659 39.8427 40.2974 39.5515 40.0603C39.1505 39.7609 39.3103 39.1223 39.7736 39.0332V39.0323Z" fill="#010101"/>
<path d="M39.5549 41.5555C39.3812 41.7164 39.4486 42.0513 39.65 42.1335C39.7969 42.1949 39.9577 42.1352 40.0493 42.0427C40.1106 41.9726 40.204 41.8056 40.1322 41.6368C40.0415 41.4274 39.7157 41.3798 39.5549 41.5564V41.5555ZM39.5549 41.5555C39.8816 41.218 40.5073 41.3677 40.5652 41.8757C40.6266 42.2521 40.2835 42.6146 39.9006 42.561C39.3968 42.5134 39.2334 41.8843 39.5549 41.5555Z" fill="#010101"/>
<path d="M38.1272 39.503C37.1333 39.2236 36.3581 40.3484 36.9388 41.1774C37.4194 41.9008 38.5472 41.7744 38.8627 40.9576C39.1271 40.3752 38.7512 39.6475 38.1272 39.503ZM38.1272 39.503C38.9983 39.7176 39.4037 40.7586 38.9093 41.5235C38.1877 42.6163 36.511 42.1603 36.4341 40.8546C36.3771 39.959 37.2854 39.2452 38.1272 39.503Z" fill="#010101"/>
</g>
<defs>
<clipPath id="clip0_1_94">
<rect width="161" height="60" fill="white"/>
</clipPath>
</defs>
</svg>
