<?xml version="1.0" encoding="utf-8" ?>
<svg baseProfile="tiny" height="512" version="1.2" viewBox="0 0 512 512" width="512" xmlns="http://www.w3.org/2000/svg" xmlns:ev="http://www.w3.org/2001/xml-events" xmlns:xlink="http://www.w3.org/1999/xlink"><defs /><polygon fill="white" fill-opacity="0.6049" points="492.4088,221.0158 491.4935,220.1296 490.2447,220.3812 490.8046,219.2369 490.1795,218.1269 491.4408,218.3059 492.3032,217.3683 492.5228,218.6232 493.681,219.1537 492.5554,219.7503" /><polygon fill="white" fill-opacity="0.9692" points="18.2461,75.0459 19.4219,75.8604 20.7593,75.3536 20.3481,76.7235 21.2434,77.8389 19.8134,77.871 19.0293,79.0672 18.5568,77.7172 17.1769,77.3411 18.3148,76.4746" /><polygon fill="white" fill-opacity="0.6292" points="151.8758,294.7633 152.5192,296.0018 153.9043,296.1739 152.9252,297.1686 153.1895,298.5391 151.941,297.9153 150.7193,298.5901 150.9267,297.2099 149.9074,296.2566 151.2841,296.0274" /><polygon fill="white" fill-opacity="0.877" points="242.5077,492.6054 242.9379,494.165 244.4665,494.6948 243.1162,495.5859 243.0847,497.2034 241.8199,496.1945 240.2718,496.6644 240.8405,495.1498 239.9152,493.8227 241.5314,493.8955" /><polygon fill="white" fill-opacity="0.6239" points="295.1109,480.8419 294.7652,480.1171 293.9722,479.991 294.5547,479.4383 294.4296,478.6451 295.1353,479.0283 295.851,478.6642 295.7046,479.4537 296.2721,480.0219 295.4759,480.1267" /><polygon fill="white" fill-opacity="0.9495" points="153.8933,271.8678 154.9966,272.0537 155.7752,271.2502 155.9393,272.357 156.9441,272.8492 155.9422,273.3473 155.7846,274.455 155.0013,273.6561 153.8991,273.8484 154.4168,272.8566" /><polygon fill="white" fill-opacity="0.6869" points="361.7283,347.8618 360.937,348.2834 360.8356,349.1743 360.1901,348.552 359.3115,348.7309 359.7039,347.9247 359.2622,347.1443 360.1503,347.2684 360.7559,346.6072 360.9123,347.4901" /><polygon fill="white" fill-opacity="0.8686" points="118.486,189.1129 117.1819,189.4185 116.6943,190.666 116.0007,189.5201 114.6636,189.4419 115.539,188.4282 115.2002,187.1324 116.4348,187.6517 117.5625,186.929 117.4502,188.2637" /><polygon fill="white" fill-opacity="0.6017" points="129.1745,344.3432 129.165,345.245 129.9025,345.7641 129.0419,346.0337 128.7761,346.8955 128.2537,346.1603 127.352,346.1739 127.8897,345.4499 127.5982,344.5965 128.4529,344.8842" /><polygon fill="white" fill-opacity="0.9945" points="63.0592,39.1376 64.2852,37.8494 63.919,36.1092 65.523,36.8771 67.0648,35.9911 66.8302,37.7538 68.1493,38.9464 66.4003,39.268 65.6737,40.8911 64.8274,39.3271" /><polygon fill="white" fill-opacity="0.6686" points="351.8,452.5803 352.3895,454.1549 354.0208,454.5619 352.7055,455.6091 352.8225,457.2864 351.42,456.359 349.861,456.9886 350.3096,455.3682 349.2291,454.0801 350.9088,454.006" /><polygon fill="white" fill-opacity="0.6875" points="45.1198,508.4418 44.0084,508.7304 43.616,509.8096 42.9981,508.8417 41.8504,508.802 42.58,507.9152 42.2631,506.8115 43.332,507.2314 44.2837,506.5889 44.2147,507.7352" /><polygon fill="white" fill-opacity="0.7966" points="219.8402,222.055 220.1729,223.9464 221.9196,224.7446 220.2236,225.6455 220.0043,227.5534 218.6233,226.2188 216.741,226.5998 217.5836,224.874 216.6396,223.2016 218.5413,223.4696" /><polygon fill="white" fill-opacity="0.6238" points="37.6389,334.9495 36.0953,335.0979 35.3425,336.4535 34.7244,335.0314 33.2024,334.7343 34.364,333.707 34.1762,332.1677 35.5122,332.955 36.9181,332.3007 36.5822,333.8146" /><polygon fill="white" fill-opacity="0.9126" points="453.498,297.2304 454.4124,297.5153 455.1655,296.9236 455.177,297.8812 455.9725,298.4146 455.0653,298.7215 454.8039,299.6429 454.2316,298.875 453.2746,298.911 453.8281,298.1295" /><polygon fill="white" fill-opacity="0.7723" points="259.2028,141.1304 260.4094,141.8597 261.6942,141.2792 261.3735,142.6521 262.3226,143.6947 260.9178,143.8139 260.2195,145.0387 259.6721,143.7395 258.2914,143.4539 259.3579,142.5317" /><polygon fill="white" fill-opacity="0.9232" points="375.9357,134.887 376.6417,134.1755 376.4559,133.1906 377.3506,133.6423 378.2299,133.1612 378.0769,134.1517 378.8061,134.8393 377.8168,134.9999 377.3882,135.9059 376.9298,135.0146" /><polygon fill="white" fill-opacity="0.9967" points="343.4967,275.0365 343.3506,273.6681 342.1406,273.0126 343.3969,272.4508 343.6463,271.0974 344.5688,272.1186 345.9331,271.9377 345.2469,273.1306 345.8406,274.3721 344.494,274.0882" /><polygon fill="white" fill-opacity="0.9361" points="220.7579,297.6479 219.7079,298.917 220.1582,300.5015 218.6267,299.8951 217.2589,300.8129 217.3624,299.169 216.0668,298.1518 217.6622,297.7422 218.2292,296.1957 219.1118,297.5865" /><polygon fill="white" fill-opacity="0.9453" points="260.7392,163.9378 258.9756,164.6881 258.5938,166.5663 257.3352,165.1208 255.4309,165.3381 256.4168,163.6944 255.6216,161.9505 257.4895,162.3802 258.9024,161.0851 259.0709,162.9943" /><polygon fill="white" fill-opacity="0.7578" points="291.9993,423.2758 291.1952,423.7261 291.1104,424.6438 290.4336,424.0183 289.5346,424.2212 289.9204,423.3842 289.4496,422.5919 290.3648,422.7002 290.9729,422.0076 291.1527,422.9115" /><polygon fill="white" fill-opacity="0.742" points="284.5346,67.1319 283.39,67.0228 282.6512,67.9038 282.4013,66.7814 281.3351,66.351 282.3253,65.7665 282.4052,64.6195 283.267,65.3806 284.3826,65.1022 283.9251,66.157" /><polygon fill="white" fill-opacity="0.8364" points="306.2128,274.5876 305.1455,273.0845 303.3022,273.1116 304.4018,271.6321 303.8064,269.8874 305.5534,270.476 307.0287,269.3706 307.0087,271.214 308.5159,272.2754 306.7566,272.8261" /><polygon fill="white" fill-opacity="0.9763" points="98.5179,357.8281 100.2255,357.9916 101.3282,356.6776 101.7005,358.3521 103.2909,358.9948 101.8133,359.8663 101.6936,361.5775 100.4082,360.4415 98.7437,360.8564 99.4268,359.2829" /><polygon fill="white" fill-opacity="0.737" points="234.0045,65.1732 234.5907,63.5973 233.6248,62.221 235.3047,62.2916 236.3152,60.9477 236.7672,62.5672 238.3576,63.1129 236.9571,64.0433 236.9295,65.7244 235.6119,64.6799" /><polygon fill="white" fill-opacity="0.8139" points="240.4926,464.2926 240.9149,465.1775 241.8832,465.3312 241.1721,466.0062 241.3251,466.9746 240.4634,466.507 239.5897,466.9517 239.7681,465.9877 239.0752,465.2942 240.0472,465.166" /><polygon fill="white" fill-opacity="0.78" points="12.0748,306.0389 12.9302,307.335 14.4827,307.3651 13.5145,308.5791 13.9656,310.0649 12.5118,309.5192 11.2381,310.4074 11.3079,308.8561 10.0695,307.9192 11.5664,307.5062" /><polygon fill="white" fill-opacity="0.6486" points="149.7297,188.5708 150.9063,187.4486 150.6489,185.8432 152.0797,186.6155 153.527,185.8746 153.2347,187.474 154.3866,188.6215 152.7751,188.8378 152.0397,190.2879 151.336,188.8221" /><polygon fill="white" fill-opacity="0.7777" points="162.8879,68.9514 161.4063,68.7045 160.363,69.785 160.14,68.2997 158.79,67.6413 160.1337,66.9702 160.3427,65.4828 161.3962,66.5534 162.8753,66.2925 162.1827,67.6253" /><polygon fill="white" fill-opacity="0.9637" points="198.1453,286.2485 197.1698,287.4199 197.5817,288.8875 196.1662,288.3217 194.8977,289.167 194.9984,287.646 193.8025,286.7007 195.2802,286.3265 195.8096,284.897 196.6222,286.1867" /><polygon fill="white" fill-opacity="0.9244" points="89.1638,93.5565 89.7831,94.6457 91.0315,94.7531 90.1869,95.6786 90.4706,96.8991 89.3293,96.3819 88.2563,97.0288 88.3955,95.7836 87.4486,94.963 88.6759,94.7106" /><polygon fill="white" fill-opacity="0.9944" points="372.8802,487.3453 373.5673,486.8183 373.5228,485.9536 374.2363,486.4443 375.0449,486.1347 374.7988,486.9649 375.3431,487.6383 374.4774,487.6607 374.0052,488.3865 373.7164,487.5701" /><polygon fill="white" fill-opacity="0.7086" points="266.2022,211.7107 266.3174,212.8757 267.3424,213.4412 266.2701,213.9108 266.049,215.0603 265.271,214.1856 264.1094,214.3306 264.7009,213.3204 264.2041,212.2604 265.3476,212.5108" /><polygon fill="white" fill-opacity="0.9319" points="418.7815,299.4618 419.027,300.6561 420.15,301.1309 419.0901,301.7335 418.9855,302.9483 418.0849,302.1264 416.8973,302.4024 417.4006,301.2918 416.7712,300.2476 417.9829,300.3832" /><polygon fill="white" fill-opacity="0.8447" points="336.1342,434.6357 334.4206,435.0841 333.8185,436.7498 332.8626,435.2586 331.0922,435.2007 332.2151,433.8308 331.7231,432.1292 333.3729,432.7738 334.8392,431.7801 334.736,433.5483" /><polygon fill="white" fill-opacity="0.9781" points="91.278,290.4984 91.959,289.5674 91.5781,288.4786 92.674,288.8386 93.5917,288.1399 93.5881,289.2934 94.5362,289.9503 93.438,290.3032 93.1062,291.408 92.4312,290.4726" /><polygon fill="white" fill-opacity="0.7942" points="113.1953,256.8966 112.2911,256.0839 111.1089,256.3681 111.6024,255.2569 110.9669,254.2205 112.1761,254.3464 112.9654,253.4217 113.2193,254.6107 114.3427,255.0756 113.2903,255.6845" /><polygon fill="white" fill-opacity="0.8991" points="327.7699,205.1104 326.7043,204.899 325.9261,205.657 325.7979,204.5782 324.8366,204.0723 325.8229,203.617 326.007,202.5464 326.7448,203.3438 327.8199,203.188 327.2895,204.1361" /><polygon fill="white" fill-opacity="0.894" points="82.4797,346.991 82.7535,348.7495 84.3573,349.5209 82.7695,350.3247 82.5314,352.0884 81.2763,350.8266 79.5254,351.1453 80.3375,349.5617 79.4934,347.9949 81.2504,348.2779" /><polygon fill="white" fill-opacity="0.9523" points="357.6553,498.6977 358.0083,499.9225 359.2174,500.3262 358.1616,501.0404 358.1514,502.3151 357.1458,501.5316 355.9304,501.9159 356.3647,500.7174 355.6237,499.6802 356.8978,499.7229" /><polygon fill="white" fill-opacity="0.9569" points="449.56,487.4393 449.8228,486.2866 449.0222,485.4167 450.1996,485.3104 450.7796,484.2802 451.2445,485.3672 452.4035,485.6004 451.5134,486.3785 451.6497,487.5528 450.6347,486.9467" /><polygon fill="white" fill-opacity="0.7784" points="223.5835,176.8275 223.937,177.9397 225.0537,178.2789 224.1052,178.9589 224.1276,180.1257 223.1878,179.4337 222.085,179.8156 222.4527,178.708 221.7487,177.7772 222.9158,177.7846" /><polygon fill="white" fill-opacity="0.8481" points="255.8912,386.9445 256.2427,385.621 255.3517,384.5812 256.719,384.5065 257.4326,383.3377 257.9262,384.615 259.2582,384.9326 258.1959,385.7967 258.3056,387.1617 257.1555,386.4184" /><polygon fill="white" fill-opacity="0.6635" points="37.0928,117.6873 37.9677,119.139 39.6595,119.2414 38.5492,120.522 38.9747,122.1627 37.4136,121.5024 35.9847,122.4141 36.1302,120.7254 34.8216,119.6482 36.4727,119.2647" /><polygon fill="white" fill-opacity="0.6867" points="462.6397,132.1437 460.9231,131.9125 459.7594,133.1955 459.4489,131.4915 457.8691,130.7812 459.3938,129.9593 459.581,128.2373 460.8339,129.4334 462.5295,129.0794 461.7791,130.6405" /><polygon fill="white" fill-opacity="0.6553" points="6.9903,403.4372 7.0053,402.6325 6.3508,402.1639 7.1208,401.9295 7.3641,401.1623 7.8251,401.8221 8.6299,401.8165 8.1448,402.4587 8.3989,403.2225 7.6382,402.9596" /><polygon fill="white" fill-opacity="0.6463" points="11.2793,369.4925 11.1078,370.4737 11.8188,371.1713 10.8326,371.3113 10.3888,372.2031 9.9509,371.3085 8.9656,371.162 9.6812,370.4691 9.516,369.4868 10.3962,369.9532" /><polygon fill="white" fill-opacity="0.7865" points="386.4855,223.8313 385.1489,222.7267 383.4812,223.2014 384.1188,221.5889 383.1519,220.1495 384.8825,220.2576 385.9526,218.8933 386.3846,220.5726 388.0129,221.1688 386.5493,222.0985" /><polygon fill="white" fill-opacity="0.6241" points="216.5423,40.0659 217.1175,38.6804 216.3024,37.4211 217.7978,37.5401 218.7435,36.3756 219.0925,37.8346 220.4922,38.3743 219.2125,39.157 219.1317,40.655 217.9919,39.6797" /><polygon fill="white" fill-opacity="0.637" points="393.4929,258.5614 392.1608,257.3229 390.3854,257.7182 391.1516,256.0685 390.227,254.5021 392.0327,254.7211 393.2367,253.3577 393.5865,255.1427 395.2552,255.8665 393.6657,256.7507" /><polygon fill="white" fill-opacity="0.8321" points="36.251,271.2931 35.6381,272.0179 35.8876,272.9337 35.0089,272.5747 34.215,273.0951 34.2849,272.1484 33.5446,271.5541 34.4666,271.3281 34.803,270.4404 35.3029,271.2474" /><polygon fill="white" fill-opacity="0.9712" points="438.9968,224.1309 439.5491,223.501 439.3434,222.689 440.1131,223.0197 440.8218,222.5731 440.7452,223.4073 441.3889,223.9433 440.5719,224.1282 440.261,224.9061 439.8327,224.1862" /><polygon fill="white" fill-opacity="0.9735" points="15.3351,162.7355 16.4617,161.7303 16.2723,160.2324 17.5764,160.9932 18.9425,160.3502 18.6219,161.8257 19.6556,162.9262 18.1533,163.0772 17.4261,164.4004 16.8182,163.0183" /><polygon fill="white" fill-opacity="0.7953" points="66.0606,295.3313 67.6545,295.5167 68.7109,294.3088 69.027,295.882 70.5023,296.5134 69.1038,297.3003 68.9591,298.8984 67.7786,297.8115 66.214,298.1678 66.8829,296.7092" /><polygon fill="white" fill-opacity="0.685" points="467.8982,283.3457 466.9516,281.9151 465.2365,281.8838 466.3046,280.5415 465.8043,278.9006 467.411,279.5016 468.817,278.5188 468.7419,280.2326 470.1111,281.266 468.458,281.7242" /><polygon fill="white" fill-opacity="0.9788" points="498.0581,488.102 497.7168,489.9596 499.0535,491.2939 497.1814,491.5433 496.3255,493.2269 495.5097,491.5235 493.644,491.2298 495.012,489.9275 494.7148,488.0624 496.376,488.961" /><polygon fill="white" fill-opacity="0.9285" points="511.988,215.2254 511.391,217.0821 512.5821,218.6265 510.6318,218.6324 509.531,220.2425 508.9227,218.3894 507.0513,217.8401 508.6256,216.6889 508.5698,214.7393 510.1512,215.8809" /><polygon fill="white" fill-opacity="0.7064" points="158.5885,497.1067 157.8047,498.9094 158.8454,500.577 156.8887,500.3886 155.6243,501.8937 155.1988,499.9746 153.3767,499.2372 155.0703,498.2395 155.2086,496.2786 156.6809,497.5811" /><polygon fill="white" fill-opacity="0.6989" points="22.1214,82.7823 23.2096,83.2346 24.1991,82.5946 24.1052,83.7693 25.0197,84.5127 23.8734,84.7864 23.449,85.8858 22.8345,84.8802 21.6578,84.8163 22.4243,83.9212" /><polygon fill="white" fill-opacity="0.7946" points="89.5903,376.2722 88.486,376.7992 88.2941,378.0077 87.4517,377.1203 86.243,377.3112 86.8267,376.2357 86.2716,375.1452 87.4748,375.368 88.3404,374.5031 88.5003,375.7162" /><polygon fill="white" fill-opacity="0.6554" points="226.9473,75.6619 226.4779,76.7201 227.0835,77.7067 225.932,77.5872 225.1809,78.468 224.9387,77.336 223.8688,76.8938 224.8706,76.3136 224.9606,75.1595 225.8219,75.933" /><polygon fill="white" fill-opacity="0.653" points="243.3869,100.374 242.3562,99.3456 240.9247,99.6116 241.5843,98.3135 240.8889,97.0343 242.3273,97.2605 243.329,96.2038 243.5584,97.6417 244.8729,98.2679 243.5763,98.9303" /><polygon fill="white" fill-opacity="0.7998" points="335.9815,270.5878 336.8345,269.9499 336.7926,268.8856 337.6629,269.4997 338.6622,269.131 338.3471,270.1485 339.0066,270.9849 337.9415,270.9996 337.3498,271.8853 337.0067,270.8769" /><polygon fill="white" fill-opacity="0.7323" points="152.5248,25.3397 153.854,25.0127 154.3382,23.7324 155.0599,24.8955 156.4271,24.9603 155.544,26.0061 155.9049,27.3264 154.6374,26.8097 153.4931,27.5609 153.5929,26.1958" /><polygon fill="white" fill-opacity="0.9761" points="308.4093,492.9867 307.3182,491.4085 305.3996,491.4126 306.5634,489.8872 305.9666,488.0637 307.7769,488.6992 309.3268,487.5681 309.2818,489.4863 310.8365,490.6107 308.9983,491.1607" /><polygon fill="white" fill-opacity="0.9162" points="284.7329,221.4593 284.9804,219.7313 283.6972,218.5478 285.4172,218.2492 286.1462,216.6631 286.9617,218.2065 288.6955,218.4098 287.4795,219.6623 287.822,221.374 286.2551,220.6047" /><polygon fill="white" fill-opacity="0.8491" points="191.2221,73.2117 192.594,73.1993 193.3615,72.0621 193.7973,73.363 195.116,73.7416 194.0134,74.558 194.0608,75.9291 192.9437,75.1328 191.6543,75.6016 192.0664,74.293" /><polygon fill="white" fill-opacity="0.6435" points="25.9107,142.2213 26.9681,143.3508 28.4981,143.1202 27.7506,144.4749 28.4427,145.8587 26.9233,145.5663 25.8212,146.6523 25.6297,145.1169 24.2563,144.4042 25.6573,143.7476" /><polygon fill="white" fill-opacity="0.6004" points="22.9999,291.5822 23.0328,289.706 21.5059,288.6152 23.3005,288.0667 23.866,286.2774 24.9423,287.8147 26.8188,287.7996 25.6893,289.2982 26.2834,291.0782 24.5092,290.4671" /><polygon fill="white" fill-opacity="0.8117" points="2.5839,207.4609 1.6758,206.6245 0.472,206.8983 0.9869,205.7762 0.3544,204.716 1.5807,204.8589 2.3936,203.9298 2.6366,205.1402 3.7715,205.6262 2.6954,206.2313" /><polygon fill="white" fill-opacity="0.9127" points="356.3913,485.7832 357.5924,485.7362 358.2347,484.7202 358.6505,485.848 359.8153,486.1448 358.8712,486.8888 358.9488,488.0884 357.9495,487.4203 356.8326,487.8648 357.1592,486.708" /><polygon fill="white" fill-opacity="0.6372" points="310.7255,511.999 309.9004,512.3292 309.7047,513.1962 309.1356,512.5135 308.2506,512.5953 308.724,511.8431 308.3728,511.0267 309.2344,511.2445 309.9024,510.6581 309.9615,511.5449" /><polygon fill="white" fill-opacity="0.6622" points="81.3876,67.4225 82.4799,67.528 83.1861,66.6879 83.4233,67.7594 84.4405,68.1714 83.4948,68.7281 83.4173,69.8228 82.5955,69.0954 81.5305,69.36 81.9683,68.3537" /><polygon fill="white" fill-opacity="0.6766" points="352.9214,389.2323 352.8878,390.9976 354.323,392.026 352.6337,392.5396 352.0991,394.2223 351.0887,392.7744 349.3231,392.7859 350.3879,391.3775 349.8313,389.702 351.4998,390.2794" /><polygon fill="white" fill-opacity="0.6817" points="29.4476,81.6176 28.3071,81.2408 27.3502,81.9668 27.3561,80.7657 26.37,80.0799 27.5141,79.7143 27.8615,78.5646 28.5628,79.5398 29.7636,79.5149 29.0529,80.4832" /><polygon fill="white" fill-opacity="0.899" points="421.4323,250.4056 422.3551,249.5212 422.1497,248.2596 423.276,248.8639 424.4124,248.2787 424.1857,249.5367 425.0934,250.4365 423.827,250.6097 423.2516,251.7511 422.6957,250.6001" /><polygon fill="white" fill-opacity="0.6513" points="205.8173,248.4481 207.1303,248.4004 207.8355,247.2918 208.2865,248.5258 209.5588,248.8538 208.5246,249.6641 208.6058,250.9755 207.5155,250.2423 206.2934,250.7247 206.6538,249.4613" /><polygon fill="white" fill-opacity="0.9214" points="29.8533,454.0185 28.6244,452.4829 26.6626,452.6247 27.7433,450.9813 27.0022,449.1593 28.8992,449.6794 30.4029,448.4115 30.4945,450.3763 32.165,451.4147 30.3247,452.109" /><polygon fill="white" fill-opacity="0.9105" points="205.0698,264.5131 206.5496,265.6176 208.2984,265.0248 207.7052,266.7734 208.8094,268.2534 206.963,268.2296 205.8967,269.7371 205.3488,267.9738 203.5855,267.4255 205.0933,266.3595" /><polygon fill="white" fill-opacity="0.6219" points="327.3179,276.7721 326.068,275.9324 324.6676,276.486 325.08,275.0378 324.1207,273.8771 325.6255,273.8217 326.433,272.5507 326.9506,273.9647 328.4089,274.3399 327.2241,275.2692" /><polygon fill="white" fill-opacity="0.7773" points="222.5432,453.0347 222.4473,451.6063 221.2163,450.8754 222.5452,450.3428 222.8599,448.9462 223.777,450.0455 225.2026,449.9132 224.4405,451.1252 225.0068,452.4401 223.6187,452.0898" /><polygon fill="white" fill-opacity="0.6973" points="359.5981,127.0121 358.4977,127.0096 357.8718,127.9148 357.5341,126.8674 356.4798,126.5518 357.3716,125.907 357.3459,124.8069 358.2348,125.4557 359.2731,125.0913 358.9307,126.1372" /><polygon fill="white" fill-opacity="0.7589" points="161.5594,177.2395 160.5349,175.7108 158.6947,175.6881 159.832,174.2413 159.2849,172.4843 161.0123,173.1188 162.5144,172.0555 162.4447,173.8945 163.92,174.9944 162.1496,175.4964" /><polygon fill="white" fill-opacity="0.6535" points="68.2427,374.6214 68.0317,375.6885 68.7912,376.4673 67.7111,376.5964 67.2051,377.5594 66.7486,376.572 65.6764,376.3884 66.4743,375.6491 66.3176,374.5726 67.2674,375.103" /><polygon fill="white" fill-opacity="0.9365" points="140.2496,168.0447 139.6457,168.7091 139.8506,169.5832 139.0321,169.2141 138.2641,169.6791 138.3622,168.7867 137.6826,168.1999 138.5617,168.0175 138.9097,167.1898 139.3549,167.9695" /><polygon fill="white" fill-opacity="0.8737" points="340.3275,290.6668 340.3375,289.1729 339.1126,288.3178 340.5365,287.8657 340.9712,286.4364 341.8412,287.6509 343.3349,287.6227 342.4487,288.8254 342.937,290.2373 341.5193,289.7661" /><polygon fill="white" fill-opacity="0.7479" points="81.4737,234.8835 81.8023,233.2793 80.6671,232.0992 82.2943,231.916 83.0659,230.4718 83.7429,231.9627 85.355,232.2502 84.1462,233.3548 84.3709,234.9768 82.9468,234.1686" /><polygon fill="white" fill-opacity="0.6452" points="291.8846,193.0082 293.2717,192.7553 293.8497,191.4692 294.5189,192.7103 295.9206,192.8626 294.9471,193.8825 295.2354,195.2627 293.9646,194.652 292.741,195.3527 292.9291,193.9553" /><polygon fill="white" fill-opacity="0.6521" points="235.1559,201.9025 233.8837,202.234 233.4355,203.47 232.7271,202.3625 231.4132,202.3182 232.2475,201.3022 231.8836,200.0389 233.1077,200.5185 234.1968,199.782 234.1189,201.0944" /><polygon fill="white" fill-opacity="0.9277" points="260.6074,477.09 259.9921,477.7075 260.152,478.5644 259.3746,478.1701 258.6091,478.587 258.7439,477.7258 258.1108,477.1265 258.9715,476.9886 259.3458,476.2014 259.743,476.9773" /><polygon fill="white" fill-opacity="0.8205" points="508.8194,69.4098 507.6228,68.9721 506.5838,69.7097 506.6303,68.4364 505.6077,67.6763 506.8331,67.327 507.24,66.1196 507.9509,67.177 509.225,67.1909 508.4389,68.1938" /><polygon fill="white" fill-opacity="0.8434" points="246.9482,137.055 247.6003,138.2846 248.9828,138.4445 248.015,139.4446 248.2901,140.8088 247.0399,140.1974 245.8274,140.8807 246.0226,139.5027 244.9981,138.5607 246.3689,138.3205" /><polygon fill="white" fill-opacity="0.616" points="415.5518,107.6308 416.3775,109.2299 418.163,109.4562 416.8973,110.7357 417.2338,112.5037 415.6258,111.6954 414.0484,112.5617 414.3202,110.7826 413.0088,109.5501 414.7848,109.2589" /><polygon fill="white" fill-opacity="0.845" points="410.1003,465.9128 409.8335,467.1975 410.7405,468.1456 409.4363,468.2888 408.8149,469.4444 408.2756,468.2483 406.9846,468.0144 407.9555,467.1319 407.779,465.8317 408.9184,466.4825" /><polygon fill="white" fill-opacity="0.7881" points="115.537,387.051 116.0483,388.5294 117.556,388.9464 116.3079,389.8895 116.3773,391.4523 115.0946,390.5567 113.6298,391.1056 114.0851,389.609 113.1105,388.3854 114.6745,388.3561" /><polygon fill="white" fill-opacity="0.7799" points="267.4448,118.0512 266.8299,118.806 267.1031,119.7404 266.1953,119.3888 265.391,119.9374 265.4448,118.9654 264.6745,118.37 265.6156,118.1208 265.9439,117.2042 266.4717,118.0223" /><polygon fill="white" fill-opacity="0.6252" points="297.6984,244.5478 298.3209,245.1822 299.1965,245.0291 298.7855,245.8172 299.2017,246.6026 298.3251,246.4552 297.7068,247.0938 297.5761,246.2146 296.7777,245.8238 297.5735,245.4278" /><polygon fill="white" fill-opacity="0.895" points="241.0314,177.6421 239.1102,178.1502 238.4397,180.0209 237.3628,178.3508 235.3765,178.2912 236.632,176.7509 236.0749,174.8434 237.9278,175.5615 239.5698,174.4422 239.4595,176.4263" /><polygon fill="white" fill-opacity="0.8874" points="461.2819,206.6975 460.3692,208.2189 461.1051,209.8332 459.3762,209.4353 458.0683,210.634 457.9124,208.8668 456.3682,207.9934 458.0008,207.299 458.3543,205.5605 459.5192,206.8986" /><polygon fill="white" fill-opacity="0.7062" points="234.1581,58.6426 234.9601,59.3569 236.0032,59.1011 235.5717,60.0847 236.1373,60.9977 235.0686,60.8912 234.375,61.7113 234.146,60.662 233.1518,60.2558 234.079,59.7137" /><polygon fill="white" fill-opacity="0.8234" points="54.9351,91.1737 55.7532,89.5469 54.8768,87.9507 56.6768,88.226 57.9241,86.8993 58.2184,88.6963 59.8656,89.4725 58.2476,90.3078 58.0183,92.1142 56.7239,90.8335" /><polygon fill="white" fill-opacity="0.9472" points="425.1049,91.5825 424.6763,90.6502 423.6654,90.4748 424.4195,89.7791 424.274,88.7635 425.1687,89.2658 426.0896,88.8135 425.8884,89.8196 426.6031,90.5557 425.5841,90.6752" /><polygon fill="white" fill-opacity="0.8209" points="194.0464,296.5751 193.5914,297.8624 194.3938,298.9669 193.029,298.9319 192.2265,300.0364 191.838,298.7276 190.5396,298.3056 191.6643,297.5317 191.6643,296.1665 192.7479,296.997" /><polygon fill="white" fill-opacity="0.839" points="178.7232,432.6007 177.9723,433.0335 177.9033,433.8974 177.2596,433.3171 176.4166,433.5184 176.7696,432.7269 176.3177,431.9874 177.1796,432.0785 177.7432,431.4202 177.9229,432.268" /><polygon fill="white" fill-opacity="0.8872" points="134.0315,410.748 133.7318,408.9494 132.0803,408.1766 133.6982,407.3358 133.9229,405.5263 135.2225,406.8053 137.0128,406.4597 136.1981,408.091 137.08,409.6869 135.2768,409.4161" /><polygon fill="white" fill-opacity="0.7389" points="157.3532,316.6831 156.6759,317.4988 156.964,318.5192 155.9788,318.1272 155.0974,318.7164 155.1658,317.6584 154.333,317.0021 155.3605,316.7403 155.7272,315.7454 156.2938,316.6417" /><polygon fill="white" fill-opacity="0.982" points="407.9703,11.1758 408.172,13.028 409.8122,13.9118 408.113,14.6761 407.7793,16.5091 406.5273,15.1292 404.6809,15.3783 405.6064,13.7612 404.799,12.0821 406.6228,12.4626" /><polygon fill="white" fill-opacity="0.9846" points="74.6428,152.7026 73.8949,153.7682 74.3488,154.9884 73.1043,154.6064 72.0841,155.4151 72.0628,154.1134 70.9784,153.3931 72.2098,152.9706 72.5598,151.7167 73.3421,152.7572" /><polygon fill="white" fill-opacity="0.7282" points="139.8295,316.746 138.2673,317.0155 137.6037,318.4552 136.8646,317.0528 135.2903,316.8665 136.3957,315.7302 136.0863,314.1754 137.5086,314.8756 138.8917,314.1009 138.6653,315.67" /><polygon fill="white" fill-opacity="0.9501" points="466.6071,427.7224 468.0732,426.4615 467.8656,424.5389 469.5178,425.5436 471.2821,424.752 470.8372,426.6339 472.1352,428.0672 470.208,428.2256 469.2459,429.903 468.4997,428.119" /><polygon fill="white" fill-opacity="0.8836" points="267.6513,443.9058 269.1487,445.0818 270.9663,444.5149 270.3106,446.3024 271.4115,447.8559 269.5088,447.7847 268.3715,449.3117 267.8513,447.4802 266.0476,446.8704 267.6287,445.8097" /><polygon fill="white" fill-opacity="0.7606" points="310.0337,155.0165 309.0683,154.8465 308.3809,155.5454 308.2443,154.5747 307.3672,154.137 308.2481,153.707 308.3934,152.7376 309.0745,153.4426 310.0414,153.2812 309.5814,154.1468" /><polygon fill="white" fill-opacity="0.821" points="38.476,199.9358 39.319,201.138 40.7873,201.1252 39.9044,202.2985 40.3703,203.6909 38.9817,203.2138 37.8013,204.0872 37.826,202.619 36.6306,201.7664 38.0345,201.3362" /><polygon fill="white" fill-opacity="0.9745" points="339.5843,487.2136 337.9756,487.9144 337.6408,489.6369 336.4772,488.3234 334.7355,488.5373 335.6251,487.0248 334.8835,485.4345 336.5969,485.8132 337.8802,484.6164 338.0495,486.3629" /><polygon fill="white" fill-opacity="0.8232" points="330.993,273.6807 329.5231,274.1376 329.0662,275.6076 328.1774,274.3508 326.6382,274.3705 327.5588,273.1368 327.0645,271.6791 328.5222,272.1734 329.7558,271.2528 329.7362,272.792" /><polygon fill="white" fill-opacity="0.8626" points="95.9428,340.5444 95.1677,339.445 93.8226,339.4602 94.6287,338.3833 94.1986,337.1088 95.4719,337.5426 96.5512,336.7397 96.532,338.0848 97.6291,338.8631 96.344,339.2605" /><polygon fill="white" fill-opacity="0.8668" points="211.796,325.1644 210.8951,324.2977 209.6703,324.5485 210.2162,323.4238 209.5992,322.3365 210.8375,322.5081 211.6809,321.5853 211.9004,322.8161 213.0387,323.333 211.936,323.9221" /><polygon fill="white" fill-opacity="0.9846" points="35.5485,296.6866 36.3111,295.6087 35.8556,294.3694 37.1164,294.7616 38.1542,293.9454 38.1708,295.2657 39.2678,296.0005 38.0173,296.4243 37.6574,297.6947 36.8679,296.6363" /><polygon fill="white" fill-opacity="0.9745" points="367.5675,296.6237 368.8776,297.2207 370.1122,296.4799 369.9492,297.9104 371.0352,298.8556 369.6244,299.1427 369.0611,300.4676 368.3521,299.2146 366.9179,299.0882 367.8906,298.0267" /><polygon fill="white" fill-opacity="0.8804" points="443.3481,34.6427 441.8168,34.4684 440.805,35.631 440.4976,34.1208 439.0793,33.5178 440.4206,32.7588 440.5557,31.2235 441.6921,32.2647 443.194,31.9188 442.555,33.3213" /></svg>